<svg width="24" height="24" xmlns="http://www.w3.org/2000/svg">

 <g>
  <title>background</title>
  <rect fill="none" id="canvas_background" height="402" width="582" y="-1" x="-1"/>
 </g>
 <g>
  <title>Layer 1</title>
  <path fill="#ff6600" id="svg_1" d="m20,7.2c0,3.6 -0.5,8.1 -2.1,9.7c-1,1 -7.6,1.8 -8.9,1.3c-1.2,-0.4 -3.6,-0.7 -5.6,-5.9c-1.3,-3.3 0.9,-4.4 1.7,-4.4c0.2,2.5 1.3,4.9 1.8,5.2c-0.4,-0.9 -0.9,-4.8 -0.9,-5.9c0.1,-3.8 1.4,-5.2 7.1,-5.2s6.9,1.4 6.9,5.2z"/>
  <path fill="#ff6600" id="svg_2" d="m18.3,17.8c0,0 -2.6,1 -5.8,0.7c-2.8,-0.2 -4.3,-1.2 -4.3,-1.2c0,1.9 0.3,3.6 0.6,3.9c0.5,0.5 1.7,0.8 4.5,0.8s4.1,-0.3 4.4,-0.8c0.4,-1 0.6,-3.4 0.6,-3.4z"/>
 </g>
</svg>