<svg width="48.00000000000001" height="48.00000000000001" xmlns="http://www.w3.org/2000/svg">

 <g>
  <title>background</title>
  <rect fill="none" id="canvas_background" height="50" width="50" y="-1" x="-1"/>
 </g>
 <g>
  <title>Layer 1</title>
  <path stroke="null" fill="#ff6600" id="svg_1" d="m7.254149,22.24502l-5.51513,0c-1.014748,0 -1.838035,0.744965 -1.838035,1.664139s0.823286,1.663207 1.838377,1.663207l5.51513,0c1.01509,0 1.837693,-0.744034 1.837693,-1.663207s-0.822944,-1.664139 -1.838035,-1.664139m5.404355,7.463006c3.554354,5.570937 11.42344,7.481328 17.578599,4.263288c6.154134,-3.215865 8.26295,-10.341945 4.709622,-15.914124c-3.553328,-5.571248 -11.423782,-7.480396 -17.578599,-4.263288c-6.154818,3.216797 -8.26295,10.341945 -4.709622,15.914124m-2.283867,-14.707088l-4.77595,-2.496364c-0.879357,-0.459276 -2.003512,-0.187251 -2.512596,0.608952c-0.506348,0.795893 -0.206505,1.814126 0.67422,2.273402l4.77595,2.496364c0.879357,0.459276 2.003171,0.18694 2.511228,-0.609263c0.508058,-0.796203 0.206847,-1.813815 -0.672852,-2.273091m6.748008,-4.921926l-2.757394,-4.323842c-0.508058,-0.795893 -1.632555,-1.068539 -2.51157,-0.609263c-0.879357,0.459587 -1.180568,1.478441 -0.67422,2.273402l2.757394,4.323842c0.507716,0.795893 1.631529,1.06885 2.511228,0.609263c0.880383,-0.459276 1.181936,-1.477509 0.674561,-2.273402m8.902638,-5.995434c0,-0.919174 -0.822603,-1.664449 -1.837693,-1.664449c-1.015774,0 -1.838377,0.745276 -1.838377,1.664449l0,4.992727c0,0.919174 0.821577,1.664139 1.838377,1.664139c1.01509,0 1.837693,-0.744965 1.837693,-1.664139l0,-4.992727l0,0zm9.943029,1.397703c-0.879357,-0.459276 -2.003854,-0.18694 -2.512596,0.608952l-2.756368,4.325084c-0.508058,0.795582 -0.206847,1.813815 0.67251,2.27247c0.879357,0.459276 2.003854,0.187561 2.51157,-0.609263l2.757052,-4.323842c0.507716,-0.795893 0.206505,-1.813815 -0.672168,-2.273402m3.113992,12.364127l4.77595,-2.496364c0.879357,-0.459276 1.180568,-1.477509 0.67422,-2.273402c-0.127527,-0.199982 -0.294373,-0.366738 -0.485493,-0.497161c-0.57336,-0.392822 -1.37203,-0.46145 -2.03189,-0.116139l-4.77595,2.496364c-0.879357,0.459276 -1.180568,1.477509 -0.67422,2.273402c0.127527,0.199982 0.293689,0.366738 0.487202,0.497472c0.570283,0.392822 1.368953,0.461139 2.03018,0.115828m1.280744,7.693421l5.514446,0c1.015774,0 1.838377,-0.744965 1.838377,-1.664139s-0.822603,-1.664139 -1.838377,-1.664139l-5.514446,0c-1.015774,0 -1.838377,0.744965 -1.838377,1.664139s0.822603,1.664139 1.838377,1.664139m-3.134505,7.30153l4.77595,2.496674c0.879357,0.459276 2.003854,0.18694 2.512596,-0.609263c0.50669,-0.796203 0.206505,-1.813815 -0.67422,-2.273402l-4.77595,-2.496364c-0.879357,-0.459276 -2.003854,-0.18694 -2.510887,0.609263c-0.508058,0.795893 -0.207189,1.813505 0.67251,2.273091m-6.745614,4.846467l2.757052,4.324774c0.507374,0.795582 1.631871,1.067608 2.510887,0.609263c0.879357,-0.459587 1.180568,-1.477199 0.67422,-2.273402l-2.757052,-4.323842c-0.508058,-0.795893 -1.631871,-1.06885 -2.51157,-0.609263c-0.880041,0.458345 -1.181252,1.476578 -0.673536,2.27247m-8.124482,6.365277c0,0.919174 0.822603,1.664139 1.838377,1.664139c1.01509,0 1.837693,-0.744965 1.837693,-1.664139l0,-4.991485c0,-0.920416 -0.822603,-1.664449 -1.837693,-1.664449c-1.015774,0 -1.838377,0.744034 -1.838377,1.664449l0,4.991485zm-10.294156,-1.070092c0.87799,0.459276 2.002145,0.18694 2.510887,-0.609263l2.756368,-4.324774c0.507716,-0.795582 0.206505,-1.813815 -0.672852,-2.27247c-0.879357,-0.459276 -2.002145,-0.187561 -2.51157,0.609263l-2.757052,4.323842c-0.506348,0.795582 -0.20548,1.814126 0.67422,2.273402m-8.946059,-8.250204c0.50669,0.795893 1.631187,1.068539 2.51157,0.609263l4.77595,-2.496674c0.662595,-0.346243 0.996286,-1.009538 0.904658,-1.656065c-0.028719,-0.216751 -0.10633,-0.43226 -0.234883,-0.633174c-0.506348,-0.795582 -1.631187,-1.067608 -2.510887,-0.609263l-4.776634,2.496674c-0.662595,0.346243 -0.996286,1.009538 -0.904658,1.656065c0.030429,0.216751 0.106672,0.431328 0.234883,0.633174"/>
 </g>
</svg>