<svg width="48" height="48" xmlns="http://www.w3.org/2000/svg">

 <g>
  <title>background</title>
  <rect fill="none" id="canvas_background" height="50" width="50" y="-1" x="-1"/>
 </g>
 <g>
  <title>Layer 1</title>
  <path stroke="#ff6600" id="svg_1" stroke-width="2" stroke-miterlimit="10" stroke-linecap="round" fill="none" d="m12.96288,7.19646c0.87704,11.35397 0.23917,4.6746 0.59794,7.52271c0.35877,2.84811 1.48965,8.63308 5.05848,11.63169l2.27106,1.90821l10.38204,0l2.27107,-1.90821c3.56882,-2.99861 5.51545,-7.08763 5.51545,-11.44925c0,-2.4534 -0.09667,-4.8779 0,-4.63421"/>
  <circle stroke="null" transform="rotate(-4.079749584197998 25.833646774291935,16.7205352783203) " fill="#ff6600" id="svg_2" r="6.175438" cy="16.720536" cx="25.833643"/>
  <path stroke="null" fill="#ff6600" id="svg_3" d="m28.209368,24.389286l-2.026567,0l-2.026567,0l-5.82638,1.266604l2.78653,9.372873l-5.573059,10.132835c0,0 7.346306,-3.799813 8.866231,-4.559776c1.519925,-0.759963 12.159402,-3.546492 12.159402,-3.546492l-4.306455,-1.519925l2.279888,-10.386156l-6.333022,-0.759963z"/>
  <path stroke="#ff6600" id="svg_4" stroke-miterlimit="10" fill="none" d="m6.131192,11.744877c0,0 6.417179,-7.567844 17.59549,-7.567844s17.59549,7.567844 17.59549,7.567844"/>
  <rect fill="#ff6600" id="svg_5" y="8.00079" x="36.524997" width="3" transform="matrix(1.4834937671117618,0.3540514771122537,-0.2531436051823052,2.0748426931602175,-10.597697587996475,-23.45221693371063) " height="7"/>
  <rect fill="#ff6600" id="svg_6" y="-2.874027" x="-4.393747" width="3" transform="matrix(-1.8396659657115264,0.35262018560705466,-0.3139208840749505,-2.0664549164855757,1.9925321153732343,13.904810488723609) " height="7"/>
  <path stroke="null" fill="#ff6600" id="svg_7" d="m17.161709,47.923216l3.841398,-2.496909c0.38414,-0.19207 0.76828,-0.57621 1.152419,-0.960349l4.033468,-4.609677l0.960349,-0.38414c2.112769,-0.76828 4.225538,-0.76828 6.338306,0l0,0c0.76828,0.19207 1.344489,0.960349 1.344489,1.728629l0,6.722446l3.841398,0l0,-6.530376c0,-2.496909 -1.536559,-4.609677 -3.841398,-5.377957l-4.417607,-1.536559l-6.146236,2.304839l-4.033468,4.609677c-0.38414,0.38414 -0.76828,0.76828 -1.152419,0.960349l-9.027285,5.570027l7.106586,0z"/>
 </g>
</svg>