<svg width="100" height="100" xmlns="http://www.w3.org/2000/svg">

 <g>
  <title>background</title>
  <rect fill="none" id="canvas_background" height="402" width="582" y="-1" x="-1"/>
 </g>
 <g>
  <title>Layer 1</title>
  <path id="svg_7" fill="#ff6600" d="m86.93,18.174l-17.588,-5.356c-3.844,-6.395 -11.339,-10.484 -19.341,-10.484c-8.22,0 -15.552,3.996 -19.353,10.485l-17.565,5.292c-4.551,1.372 -7.708,5.854 -7.707,10.524c0,0.644 0.061,1.291 0.185,1.933l10.953,56.709c1.013,5.223 6.166,9.723 11.487,9.723l44.002,0c5.32,0 10.475,-4.5 11.488,-9.722l10.948,-56.501c0.125,-0.645 0.186,-1.357 0.185,-2.003c-0.001,-4.668 -3.152,-9.218 -7.694,-10.6zm-19.235,9.929c-0.427,2.004 -1.198,3.877 -2.229,5.577l-3.118,-2.183c-0.321,0.551 -0.677,1.078 -1.066,1.579l3.112,2.18c-1.229,1.615 -2.71,3.026 -4.403,4.152l-1.906,-3.3c-0.522,0.36 -1.073,0.677 -1.643,0.965l1.927,3.3c-2.233,1.167 -4.369,1.868 -7.369,2.008l0,-3.81c0,0.021 -0.68,0.049 -1.002,0.049c-0.321,0 -0.998,-0.027 -0.998,-0.048l0,3.809c-2,-0.109 -4.071,-0.559 -5.918,-1.323l1.625,-3.458c-0.594,-0.237 -1.162,-0.509 -1.713,-0.82l-1.612,3.463c-1.795,-0.976 -3.39,-2.261 -4.754,-3.761l2.91,-2.442c-0.432,-0.465 -0.835,-0.956 -1.203,-1.476l-2.913,2.445c-1.184,-1.612 -2.119,-3.416 -2.72,-5.371l3.681,-0.985c-0.19,-0.601 -0.331,-1.222 -0.44,-1.854l-3.697,0.99c-0.218,-1.12 -0.34,-2.272 -0.34,-3.454c0,-0.853 0.08,-1.686 0.195,-2.508l3.747,0.662c0.082,-0.638 0.209,-1.261 0.373,-1.869l-3.757,-0.662c0.486,-1.949 1.281,-3.774 2.345,-5.417l3.117,2.184c0.341,-0.54 0.708,-1.059 1.115,-1.546l-3.12,-2.184c1.232,-1.526 2.708,-2.841 4.365,-3.901l1.9,3.291c0.53,-0.347 1.088,-0.653 1.664,-0.929l-1.93,-3.3c0.756,-0.378 1.482,-0.7 2.236,-0.97c1.539,-0.461 2.844,-0.742 4.844,-0.821l0,3.731c0,-0.021 0.677,-0.048 0.998,-0.048c0.322,0 1.002,0.027 1.002,0.049l0,-3.73c2,0.084 3.267,0.376 4.804,0.85c0.289,0.098 0.58,0.19 0.863,0.302l-1.624,3.458c0.598,0.225 1.177,0.476 1.733,0.777l1.604,-3.445c1.745,0.917 3.316,2.109 4.669,3.518l-2.912,2.443c0.447,0.451 0.854,0.939 1.238,1.446l2.913,-2.445c1.202,1.548 2.154,3.292 2.807,5.179l-3.688,0.988c0.217,0.593 0.403,1.2 0.54,1.827l3.675,-0.984c0.3,1.305 0.475,2.657 0.475,4.053c0,0.637 -0.036,1.267 -0.1,1.887l-3.772,-0.665c-0.054,0.642 -0.151,1.27 -0.287,1.884l3.757,0.663zm22.818,1.786l-10.949,56.627c-0.656,3.379 -4.119,6.484 -7.561,6.484l-20.003,0l0,-5c0,-1.104 -0.896,-2 -2,-2s-2,0.896 -2,2l0,5l-19.999,0c-3.442,0 -6.904,-3.105 -7.561,-6.484l-10.953,-56.584c-0.075,-0.389 -0.111,-0.846 -0.111,-1.239c0.001,-2.934 2.027,-5.867 4.861,-6.721l17.271,-5.219c-0.967,2.344 -1.508,4.899 -1.508,7.589c0,11.028 8.972,19.996 20,19.996c11.027,0 20,-8.974 20,-20.002c0,-2.688 -0.541,-5.25 -1.507,-7.594l17.272,5.258c2.834,0.863 4.859,3.774 4.859,6.711c0,0.394 -0.036,0.789 -0.111,1.178z"/>
  <path id="svg_8" fill="#ff6600" d="m51,22.046l0,-8.046c0,-0.552 -0.448,-1 -1,-1c-0.553,0 -1,0.448 -1,1l0,8.044c-1,0.386 -1.5,1.265 -1.5,2.29c0,1.381 1.12,2.5 2.5,2.5s2.499,-1.119 2.499,-2.5c0,-1.024 -0.499,-1.901 -1.499,-2.288z"/>
  <path id="svg_9" fill="#ff6600" d="m78.003,51l-56,0c-0.553,0 -1,0.448 -1,1s0.447,1 1,1l56,0c0.552,0 1,-0.448 1,-1s-0.448,-1 -1,-1z"/>
  <path id="svg_10" fill="#ff6600" d="m77.003,59l-54,0c-0.553,0 -1,0.448 -1,1s0.447,1 1,1l54,0c0.552,0 1,-0.448 1,-1s-0.448,-1 -1,-1z"/>
  <path id="svg_11" fill="#ff6600" d="m76.003,67l-52,0c-0.553,0 -1,0.448 -1,1s0.447,1 1,1l52,0c0.552,0 1,-0.448 1,-1s-0.448,-1 -1,-1z"/>
  <path id="svg_12" fill="#ff6600" d="m74.889982,75l-50,0c-0.553,0 -1,0.448 -1,1s0.447,1 1,1l50,0c0.552,0 1,-0.448 1,-1s-0.448,-1 -1,-1z"/>
 </g>
</svg>